<svg id="Layer_3" enable-background="new 0 0 64 64" height="512" viewBox="0 0 64 64" width="512" xmlns="http://www.w3.org/2000/svg" fill="#2561d0"><g><path d="m48.568 24.97c4.697-.296 8.431-4.2 8.431-8.971 0-4.963-4.037-9-9-9-4.771 0-8.675 3.733-8.971 8.431 4.282 1.824 7.717 5.259 9.54 9.54zm-.568-15.97c3.859 0 7 3.14 7 7h-2c0-2.757-2.243-5-5-5z"/><path d="m32 16c-8.823 0-16 7.177-16 16 0 8.822 7.177 16 16 16 8.822 0 16-7.177 16-16-.001-8.823-7.178-16-16-16zm0 4v-2c7.719 0 14 6.28 14 14h-2c0-6.618-5.383-12-12-12z"/><path d="m54 47c-3.86 0-7 3.14-7 7 0 3.859 3.14 7 7 7 3.859 0 7-3.14 7-7s-3.141-7-7-7zm2.999 6.999c0-1.654-1.346-3-3-3v-2c2.757 0 5 2.243 5 5z"/><path d="m14 16.999c3.859 0 7-3.14 7-7s-3.14-7-7-7-7 3.14-7 7 3.14 7 7 7zm0-11.999c2.757 0 5 2.243 5 5h-2c0-1.654-1.346-3-3-3z"/><path d="m15 55c-1.654 0-3 1.346-3 3s1.346 3 3 3 3-1.346 3-3c-.001-1.655-1.347-3-3-3z"/><path d="m6 37c-1.654 0-3 1.346-3 3s1.346 3 3 3 3-1.346 3-3c0-1.655-1.346-3-3-3z"/><path d="m9 25c-1.654 0-3 1.346-3 3s1.345 3 3 3c1.654 0 3-1.346 3-3-.001-1.655-1.347-3-3-3z"/><path d="m54 35c0 1.103.897 2 2 2s2-.897 2-2-.897-2-2-2c-1.104 0-2 .896-2 2z"/><path d="m35 53c-1.103 0-2 .897-2 2s.897 2 2 2 2-.897 2-2c0-1.104-.897-2-2-2z"/><path d="m32 8.999c.551 0 1-.448 1-1s-.448-1-1-1-1 .448-1 1 .448 1 1 1z"/><path d="m13 49c0 .551.448 1 1 1 .551 0 1-.448 1-1s-.448-1-1-1-1 .448-1 1z"/></g></svg>