<svg xmlns="http://www.w3.org/2000/svg" viewBox="0 0 512.006 512.006" style="enable-background:new 0 0 512.006 512.006" xml:space="preserve" fill="#2561d0"><path d="m342.191 257.056-25.525-15.953 14.503-27.282-30.081-1.052-1.082-30.879-26.578 14.129-16.375-26.2-15.953 25.524-27.282-14.503-1.052 30.081-30.879 1.082 14.129 26.578-26.2 16.375 25.524 15.953-14.503 27.282 30.081 1.052L212 330.122l26.578-14.129 16.375 26.201 15.953-25.525 27.282 14.503 1.052-30.081 30.879-1.082-14.129-26.578z"/><path d="m512.003 257.057-76.48-47.801 42.707-80.341-90.133-3.155-3.184-90.931-79.638 42.333L257.054.006l-47.801 76.48-80.341-42.709-3.155 90.135-90.931 3.184 42.333 79.638L.003 254.955l76.48 47.801-42.707 80.341 90.133 3.155 3.184 90.931 79.638-42.333 48.221 77.156 47.801-76.48 80.341 42.707 3.155-90.133 90.931-3.184-42.333-79.638 77.156-48.221zm-156.394 26.989 23.531 44.266-50.896 1.781-1.754 50.101-44.969-23.905-26.568 42.511-26.99-43.187-44.266 23.531-1.781-50.896-50.101-1.754 23.905-44.969-42.511-26.568 43.187-26.99-23.531-44.266 50.896-1.781 1.754-50.099 44.969 23.903 26.568-42.511 26.99 43.187 44.266-23.531 1.781 50.896 50.101 1.754-23.905 44.969 42.511 26.568-43.187 26.99zM427.135 448.367l21.213-21.213 21.213 21.213-21.213 21.213zM469.574 490.79l21.213-21.212L512 490.79l-21.213 21.213zM0 21.218 21.213.005l21.213 21.213-21.213 21.213zM42.43 63.646l21.212-21.213 21.213 21.213L63.642 84.86zM469.574 21.216 490.787.003 512 21.216 490.787 42.43zM42.423 448.368l21.213-21.213 21.213 21.213-21.213 21.213z"/></svg>